<svg xmlns="http://www.w3.org/2000/svg" width="1140" height="600" viewBox="0 0 1140 600"><rect width="100%" height="100%" fill="#DDDDDD"/><path fill="#999999" d="M275.77 336.04h17.42v12.4h-53.6v-12.4h19.63v-56.48q0-3.35.2-6.9l-13.93 11.66q-1.21.94-2.38 1.17-1.17.24-2.21.04-1.04-.2-1.84-.71-.81-.5-1.21-1.1l-5.23-7.17 29.55-25.13h13.6v84.62Zm77.72 0h17.42v12.4h-53.6v-12.4h19.63v-56.48q0-3.35.2-6.9l-13.93 11.66q-1.21.94-2.38 1.17-1.17.24-2.21.04-1.04-.2-1.84-.71-.81-.5-1.21-1.1l-5.23-7.17 29.55-25.13h13.6v84.62Zm44.02-24.12h29.48v-31.69q0-4.49.6-9.91l-30.08 41.6Zm43.89 0h12.19v9.59q0 1.34-.87 2.31t-2.48.97h-8.84v23.65h-14.41v-23.65h-40.87q-1.67 0-2.95-1.04-1.27-1.04-1.6-2.58l-1.75-8.37 45.9-61.31h15.68v60.43ZM531.38 300q0 12.66-2.72 22.01-2.71 9.34-7.5 15.44t-11.32 9.08q-6.54 2.98-14.11 2.98-7.57 0-14.03-2.98-6.47-2.98-11.23-9.08-4.75-6.1-7.43-15.44-2.68-9.35-2.68-22.01 0-12.73 2.68-22.04 2.68-9.32 7.43-15.41 4.76-6.1 11.23-9.08 6.46-2.98 14.03-2.98 7.57 0 14.11 2.98 6.53 2.98 11.32 9.08 4.79 6.09 7.5 15.41 2.72 9.31 2.72 22.04Zm-17.09 0q0-10.52-1.54-17.42-1.54-6.9-4.12-10.99t-5.93-5.73q-3.35-1.64-6.97-1.64-3.55 0-6.86 1.64-3.32 1.64-5.87 5.73-2.54 4.09-4.05 10.99-1.51 6.9-1.51 17.42 0 10.52 1.51 17.42 1.51 6.9 4.05 10.99 2.55 4.08 5.87 5.73 3.31 1.64 6.86 1.64 3.62 0 6.97-1.64 3.35-1.65 5.93-5.73 2.58-4.09 4.12-10.99t1.54-17.42Zm123.48 26.26-8.77 8.65-22.72-22.72-22.91 22.85-8.78-8.64 22.92-22.98-21.85-21.85 8.71-8.71 21.85 21.85 21.7-21.71 8.85 8.71-21.78 21.77 22.78 22.78Zm103.52-74.7-28.74 35.17-3.35 4.16q2.81-1.41 6.06-2.18 3.25-.77 7-.77 5.49 0 10.69 1.81 5.19 1.81 9.14 5.46 3.96 3.65 6.37 9.08 2.41 5.42 2.41 12.66 0 6.77-2.48 12.7T741.42 340q-4.49 4.42-10.82 6.97-6.33 2.54-13.97 2.54-7.77 0-13.93-2.48-6.17-2.48-10.52-6.93-4.36-4.46-6.67-10.72-2.31-6.27-2.31-13.9 0-6.84 2.78-14.04 2.78-7.2 8.61-14.98l23.11-31.02q1.21-1.6 3.52-2.74 2.31-1.14 5.33-1.14h14.74Zm-24.99 84.42q3.95 0 7.27-1.34 3.31-1.34 5.69-3.75 2.38-2.42 3.72-5.67 1.34-3.24 1.34-7.06 0-4.16-1.27-7.47-1.28-3.32-3.62-5.63-2.35-2.31-5.63-3.52t-7.23-1.21q-3.96 0-7.17 1.34-3.22 1.34-5.5 3.72t-3.55 5.63q-1.27 3.25-1.27 7 0 4.02 1.1 7.34 1.11 3.31 3.29 5.66 2.17 2.34 5.39 3.65 3.22 1.31 7.44 1.31ZM829.66 300q0 12.66-2.71 22.01-2.72 9.34-7.51 15.44-4.79 6.1-11.32 9.08-6.53 2.98-14.1 2.98-7.57 0-14.04-2.98-6.46-2.98-11.22-9.08-4.76-6.1-7.44-15.44-2.68-9.35-2.68-22.01 0-12.73 2.68-22.04 2.68-9.32 7.44-15.41 4.76-6.1 11.22-9.08 6.47-2.98 14.04-2.98 7.57 0 14.1 2.98 6.53 2.98 11.32 9.08 4.79 6.09 7.51 15.41 2.71 9.31 2.71 22.04Zm-17.08 0q0-10.52-1.54-17.42-1.55-6.9-4.12-10.99-2.58-4.09-5.93-5.73-3.35-1.64-6.97-1.64-3.55 0-6.87 1.64-3.32 1.64-5.86 5.73-2.55 4.09-4.06 10.99-1.5 6.9-1.5 17.42 0 10.52 1.5 17.42 1.51 6.9 4.06 10.99 2.54 4.08 5.86 5.73 3.32 1.64 6.87 1.64 3.62 0 6.97-1.64 3.35-1.65 5.93-5.73 2.57-4.09 4.12-10.99 1.54-6.9 1.54-17.42Zm94.8 0q0 12.66-2.71 22.01-2.72 9.34-7.51 15.44-4.79 6.1-11.32 9.08-6.53 2.98-14.1 2.98-7.57 0-14.04-2.98-6.46-2.98-11.22-9.08-4.76-6.1-7.44-15.44-2.68-9.35-2.68-22.01 0-12.73 2.68-22.04 2.68-9.32 7.44-15.41 4.76-6.1 11.22-9.08 6.47-2.98 14.04-2.98 7.57 0 14.1 2.98 6.53 2.98 11.32 9.08 4.79 6.09 7.51 15.41 2.71 9.31 2.71 22.04Zm-17.08 0q0-10.52-1.54-17.42-1.55-6.9-4.12-10.99-2.58-4.09-5.93-5.73-3.35-1.64-6.97-1.64-3.55 0-6.87 1.64-3.32 1.64-5.86 5.73-2.55 4.09-4.06 10.99-1.5 6.9-1.5 17.42 0 10.52 1.5 17.42 1.51 6.9 4.06 10.99 2.54 4.08 5.86 5.73 3.32 1.64 6.87 1.64 3.62 0 6.97-1.64 3.35-1.65 5.93-5.73 2.57-4.09 4.12-10.99 1.54-6.9 1.54-17.42Z"/></svg>